# xmcd
#
# Track frame offsets:
#	150
#	18327
#	31889
#	44611
#	61138
#	78550
#	90707
#	105909
#	120001
#	136663
#	149770
#	164092
#	177089
#	194401
#	211623
#	226220
#	241582
#	258114
#	272426
#	302868
#	316195
#	330782
#	344574
#
# Disc length: 4799 seconds
#
# Revision: 1
# Processed by: cddbd v1.4PL0 Copyright (c) Steve Scherf et al.
# Submitted via: audiograbber 1.82.02
#
DISCID=2812bd17
DTITLE=VER - CTV-002 PSA Programming
DYEAR=1900
DGENRE=Country
TTITLE0=Rodney Atkins - Honesty (Write Me A List) (03)
TTITLE1=Blackhawk - There You Have It
TTITLE2=Trisha Yearwood - Perfect Love
TTITLE3=Tim McGraw - She's My Kind Of Rain (02)
TTITLE4=Mark Chesnutt - Almost Goodbye (93)
TTITLE5=Toby Keith - A Little Less Talk and A Lot More Action
TTITLE6=Patty Loveless - On Your Way Home (03)
TTITLE7=Mark Wills - I Do (Cherish You) (98)
TTITLE8=Clint Black - Loving Blind
TTITLE9=Diamond Rio - Wrinkles (03)
TTITLE10=David Lee Murphy - Dust On The Bottle
TTITLE11=Brook's and Dunn - You Can't Take The Honky Tonk Ou Of The Girl (03)
TTITLE12=Vince Gill - Lets Make Sure We Kiss Goodbye (00)
TTITLE13=Jamie O'Neal - There Is No Arizona (01)
TTITLE14=Alan Jackson - That'd Be Alright (02)
TTITLE15=Rascal Flatts - I Melt (03)
TTITLE16=Wynonna - No One Elsa On Earth
TTITLE17=Lonestar - With Me (01)
TTITLE18=Garth Brooks - The Dance
TTITLE19=Clay Walker - One, Two, I Love You
TTITLE20=Dierks Bently - My Last Name (03)
TTITLE21=Jo Dee Messina - Lesson In Leavin' (99)
TTITLE22=Gary Allan - Tough Little Boys (03)
EXTD=
EXTT0=
EXTT1=
EXTT2=
EXTT3=
EXTT4=
EXTT5=
EXTT6=
EXTT7=
EXTT8=
EXTT9=
EXTT10=
EXTT11=
EXTT12=
EXTT13=
EXTT14=
EXTT15=
EXTT16=
EXTT17=
EXTT18=
EXTT19=
EXTT20=
EXTT21=
EXTT22=
PLAYORDER=
